<?xml version="1.0" encoding="utf-8"?>
<!-- Generator: Adobe Illustrator 17.1.0, SVG Export Plug-In . SVG Version: 6.00 Build 0)  -->
<!DOCTYPE svg PUBLIC "-//W3C//DTD SVG 1.1//EN" "http://www.w3.org/Graphics/SVG/1.1/DTD/svg11.dtd">
<svg version="1.1" id="Layer_1" xmlns="http://www.w3.org/2000/svg" xmlns:xlink="http://www.w3.org/1999/xlink" x="0px" y="0px"
	 viewBox="0 0 512 512" enable-background="new 0 0 512 512" xml:space="preserve">
<path id="bell-icon" fill="#010101" d="M323.7,84.2c-13.9-8-22.5-22.8-22.5-38.8c0,0,0-0.1,0-0.1C301.3,20.3,281,0,256,0
	c-25,0-45.3,20.3-45.3,45.3c0,0,0,0.1,0,0.1c0,16-8.6,30.9-22.5,38.8C87.5,142,145.4,334.1,40.1,368v44.9h431.7V368
	C366.6,334.1,424.5,142,323.7,84.2z M256,26.9c10.1,0,18.4,8.2,18.4,18.4c0,10.1-8.2,18.4-18.4,18.4c-10.1,0-18.4-8.2-18.4-18.4
	S245.9,26.9,256,26.9z M318.3,450.3c0,34.1-27.6,61.7-61.7,61.7c-34.1,0-61.7-27.6-61.7-61.7H318.3z"/>
</svg>
