<?xml version="1.0" encoding="utf-8"?>
<!-- Generator: Adobe Illustrator 17.1.0, SVG Export Plug-In . SVG Version: 6.00 Build 0)  -->
<!DOCTYPE svg PUBLIC "-//W3C//DTD SVG 1.1 Tiny//EN" "http://www.w3.org/Graphics/SVG/1.1/DTD/svg11-tiny.dtd">
<svg version="1.1" baseProfile="tiny" id="Layer_1" xmlns="http://www.w3.org/2000/svg" xmlns:xlink="http://www.w3.org/1999/xlink"
	 x="0px" y="0px" viewBox="0 0 512 512" xml:space="preserve">
<path id="gear-icon" d="M506,289.7v-67.3l-36.4-12.9c-13.9-4.9-25-15.5-30.7-29.1c0,0,0,0,0,0c-5.7-13.6-5.3-29,1.1-42.4l16.6-34.9
	L409,55.4L374.1,72c-13.3,6.3-28.7,6.7-42.4,1.1c0,0,0,0,0,0c-13.6-5.6-24.2-16.8-29.1-30.7L289.7,6h-67.3l-12.9,36.4
	c-4.9,13.9-15.5,25-29.1,30.7c0,0,0,0,0,0c-13.6,5.7-29,5.3-42.4-1.1L103,55.4L55.4,103L72,137.9c6.3,13.3,6.7,28.7,1.1,42.4
	c0,0,0,0,0,0c-5.6,13.6-16.8,24.2-30.7,29.1L6,222.3v67.3l36.4,12.9c13.9,4.9,25,15.5,30.7,29.1c0,0,0,0,0,0
	c5.7,13.6,5.3,29-1.1,42.4L55.4,409l47.6,47.6l34.9-16.6c13.3-6.3,28.7-6.7,42.4-1.1c0,0,0,0,0,0c13.6,5.6,24.2,16.8,29.1,30.7
	l12.9,36.4h67.3l12.9-36.2c5-14,15.7-25.3,29.4-31c0,0,0,0,0,0c13.5-5.6,28.8-5.2,42,1l35.1,16.7l47.6-47.6L440,374.1
	c-6.3-13.3-6.7-28.7-1.1-42.3c0,0,0,0,0,0c5.6-13.6,16.8-24.2,30.7-29.2L506,289.7z M256,347.7c-50.6,0-91.7-41-91.7-91.7
	s41-91.7,91.7-91.7c50.6,0,91.7,41,91.7,91.7S306.6,347.7,256,347.7z"/>
</svg>
