<?xml version="1.0" encoding="utf-8"?>
<!-- Generator: Adobe Illustrator 17.1.0, SVG Export Plug-In . SVG Version: 6.00 Build 0)  -->
<!DOCTYPE svg PUBLIC "-//W3C//DTD SVG 1.1//EN" "http://www.w3.org/Graphics/SVG/1.1/DTD/svg11.dtd">
<svg version="1.1" id="Layer_1" xmlns="http://www.w3.org/2000/svg" xmlns:xlink="http://www.w3.org/1999/xlink" x="0px" y="0px"
	 viewBox="0 0 1000 1000" enable-background="new 0 0 1000 1000" xml:space="preserve">
<path id="magnifier-4-icon" d="M966.8,835.7L759.5,628.4C799.7,565,823,490,823,409.6C823,183.7,639.2,0,413.4,0
	C187.6,0,3.8,183.7,3.8,409.6s183.7,409.6,409.6,409.6c76.4,0,148-21.1,209.3-57.6l209.2,209.2C921.2,1060,1056.2,925.1,966.8,835.7
	z M130.8,409.6c0-155.8,126.8-282.6,282.6-282.6S696,253.8,696,409.6S569.2,692.1,413.4,692.1S130.8,565.4,130.8,409.6z
	 M214.5,336.1c82.7-191.6,361.1-169.4,413.5,31.2C522.4,243.4,336.6,230,214.5,336.1z"/>
</svg>
